
<svg viewBox="0 0 16 16" fill="currentColor" id='upload'>
    <path
        d="M2.30103 16H13.7148C14.4288 16 15 15.4252 15 14.7261C15 14.027 14.4288 13.4522 13.7148 13.4522H2.30103C1.57118 13.4522 1 14.027 1 14.7261C1 15.4252 1.57118 16 2.30103 16Z"
        fill="currentColor" />
    <path
        d="M6.75194 11.3372C6.75194 12.0027 7.33957 12.535 8.05426 12.535C8.76895 12.535 9.35659 12.0027 9.35659 11.3372V3.524L12.0046 5.71313C12.4426 6.11261 13.1495 6.11261 13.5875 5.71313C14.0238 5.31348 14.0238 4.66581 13.5875 4.26616L8.87377 0.300263C8.87271 0.300069 8.87211 0.299819 8.87211 0.299819C8.65399 0.100077 8.36765 0 8.08142 0C7.79519 0 7.50896 0.0998706 7.29084 0.299612L2.1954 4.26616C1.75916 4.66581 1.75916 5.31348 2.1954 5.71313C2.63342 6.11261 3.34031 6.11261 3.77833 5.71313L6.75194 3.47186V11.3372Z"
        fill="currentColor" />
</svg>